<?xml version="1.0" encoding="UTF-8" standalone="no"?>
<!-- Created with Inkscape (http://www.inkscape.org/) -->

<svg
   width="210mm"
   height="297mm"
   viewBox="0 0 210 297"
   version="1.1"
   id="svg5"
   inkscape:version="1.2.2 (b0a8486541, 2022-12-01)"
   sodipodi:docname="рисунок.svg"
   xmlns:inkscape="http://www.inkscape.org/namespaces/inkscape"
   xmlns:sodipodi="http://sodipodi.sourceforge.net/DTD/sodipodi-0.dtd"
   xmlns="http://www.w3.org/2000/svg"
   xmlns:svg="http://www.w3.org/2000/svg">
  <sodipodi:namedview
     id="namedview7"
     pagecolor="#ffffff"
     bordercolor="#000000"
     borderopacity="0.25"
     inkscape:showpageshadow="2"
     inkscape:pageopacity="0.0"
     inkscape:pagecheckerboard="0"
     inkscape:deskcolor="#d1d1d1"
     inkscape:document-units="mm"
     showgrid="false"
     inkscape:zoom="2.1946698"
     inkscape:cx="297.99472"
     inkscape:cy="583.00343"
     inkscape:window-width="1896"
     inkscape:window-height="1010"
     inkscape:window-x="10"
     inkscape:window-y="56"
     inkscape:window-maximized="1"
     inkscape:current-layer="layer1" />
  <defs
     id="defs2" />
  <g
     inkscape:label="Слой 1"
     inkscape:groupmode="layer"
     id="layer1"
     style="display:inline">
    <rect
       style="fill:#000000;stroke-width:0.264583"
       id="rect123"
       width="25.309956"
       height="8.9243555"
       x="53.405445"
       y="106.56796" />
    <rect
       style="fill:#000000;stroke-width:0.264583"
       id="rect123-3"
       width="25.309956"
       height="8.9243555"
       x="53.534245"
       y="116.57706" />
    <rect
       style="fill:#000000;stroke-width:0.264583"
       id="rect123-6"
       width="25.309956"
       height="8.9243555"
       x="53.52718"
       y="126.34446" />
    <rect
       style="fill:#000000;stroke-width:0.264583"
       id="rect123-7"
       width="25.309956"
       height="8.9243555"
       x="53.587578"
       y="136.34526" />
    <rect
       style="fill:#000000;stroke-width:0.264583"
       id="rect123-3-5"
       width="25.309956"
       height="8.9243555"
       x="53.716377"
       y="146.35435" />
    <rect
       style="fill:#000000;stroke-width:0.264583"
       id="rect123-6-3"
       width="25.309956"
       height="8.9243555"
       x="53.709312"
       y="156.12177" />
    <rect
       style="fill:#000000;stroke-width:0.264583"
       id="rect123-5"
       width="25.309956"
       height="8.9243555"
       x="53.586163"
       y="166.12305" />
    <rect
       style="fill:#000000;stroke-width:0.264583"
       id="rect123-3-6"
       width="25.309956"
       height="8.9243555"
       x="53.714962"
       y="176.13214" />
    <rect
       style="fill:#000000;stroke-width:0.264583"
       id="rect123-6-2"
       width="25.309956"
       height="8.9243555"
       x="53.707897"
       y="185.89955" />
    <text
       xml:space="preserve"
       style="font-size:3.175px;white-space:pre;inline-size:47.4704;fill:#000000;stroke-width:0.264583"
       x="154.78654"
       y="109.34141"
       id="text377"
       transform="matrix(1.5789367,0,0,2.3594779,-163.02548,-142.1283)"><tspan
         x="154.78654"
         y="109.34141"
         id="tspan2229">background = #191724
</tspan><tspan
         x="154.78654"
         y="113.31016"
         id="tspan2231">background-alt = #1f1d2e
</tspan><tspan
         x="154.78654"
         y="117.27891"
         id="tspan2233">foreground = #e0def4
</tspan><tspan
         x="154.78654"
         y="121.24766"
         id="tspan2235">love = #eb6f92
</tspan><tspan
         x="154.78654"
         y="125.21641"
         id="tspan2237">gold = #f6c177
</tspan><tspan
         x="154.78654"
         y="129.18516"
         id="tspan2239">pine = #31748f
</tspan><tspan
         x="154.78654"
         y="133.1539"
         id="tspan2241">foam = #9ccfd8
</tspan><tspan
         x="154.78654"
         y="137.12265"
         id="tspan2243">iris = #c4a7e7</tspan></text>
    <path
       style="fill:none;stroke-width:0.455649"
       d="m 202.08052,419.65311 v -16.6312 h 47.61536 47.61536 v 16.6312 16.63121 h -47.61536 -47.61536 z"
       id="path581"
       transform="scale(0.26458333)" />
    <path
       style="fill:none;stroke-width:0.455649"
       d="m 202.08052,419.65311 v -16.6312 h 47.61536 47.61536 v 16.6312 16.63121 h -47.61536 -47.61536 z"
       id="path721"
       transform="scale(0.26458333)" />
    <path
       style="fill:#191724;stroke-width:0.455649;fill-opacity:1"
       d=""
       id="path723"
       transform="scale(0.26458333)" />
    <path
       style="fill:#1f1d2e;fill-opacity:1;stroke-width:0.455649"
       d="m 201.85269,419.65311 v -16.6312 h 47.61537 47.61536 v 16.6312 16.63121 h -47.61536 -47.61537 z"
       id="path1609"
       transform="scale(0.26458333)" />
    <path
       style="fill:#1f1d2e;fill-opacity:1;stroke-width:0.455649"
       d="m 202.76399,457.47201 v -16.6312 h 47.61536 47.61537 v 16.6312 16.63121 h -47.61537 -47.61536 z"
       id="path1680"
       transform="scale(0.26458333)" />
    <path
       style="fill:#e0def4;fill-opacity:1;stroke-width:0.455649"
       d="m 202.30834,494.37962 v -16.63121 h 47.61536 47.61537 v 16.63121 16.6312 H 249.9237 202.30834 Z"
       id="path1751"
       transform="scale(0.26458333)" />
    <path
       style="fill:#e0def4;fill-opacity:1;stroke-width:0.455649"
       d="m 202.30834,494.37962 v -16.63121 h 47.61536 47.61537 v 16.63121 16.6312 H 249.9237 202.30834 Z"
       id="path1753"
       transform="scale(0.26458333)" />
    <path
       style="fill:#eb6f92;fill-opacity:1;stroke-width:0.455649"
       d="m 202.76399,532.19852 v -16.63121 h 47.61536 47.61537 v 16.63121 16.6312 h -47.61537 -47.61536 z"
       id="path1755"
       transform="scale(0.26458333)" />
    <path
       style="fill:#f6c177;fill-opacity:1;stroke-width:0.455649"
       d="m 203.21964,570.01742 v -16.6312 h 47.61536 47.61537 v 16.6312 16.6312 H 250.835 203.21964 Z"
       id="path1826"
       transform="scale(0.26458333)" />
    <path
       style="fill:#31748f;fill-opacity:1;stroke-width:0.455649"
       d="m 203.21964,606.92502 v -16.6312 h 47.61536 47.61537 v 16.6312 16.63121 H 250.835 203.21964 Z"
       id="path1897"
       transform="scale(0.26458333)" />
    <path
       style="fill:#9ccfd8;fill-opacity:1;stroke-width:0.455649"
       d="m 202.76399,644.74392 v -16.6312 h 47.61536 47.61537 v 16.6312 16.63121 h -47.61537 -47.61536 z"
       id="path1968"
       transform="scale(0.26458333)" />
    <path
       style="fill:#c4a7e7;fill-opacity:1;stroke-width:0.455649"
       d="m 203.21964,682.56282 v -16.6312 h 47.61536 47.61537 v 16.6312 16.63121 H 250.835 203.21964 Z"
       id="path2039"
       transform="scale(0.26458333)" />
    <path
       style="fill:#191724;fill-opacity:1;stroke-width:0.455649"
       d="m 201.85269,419.65311 v -16.6312 h 47.61537 47.61536 v 16.6312 16.63121 h -47.61536 -47.61537 z"
       id="path2110"
       transform="scale(0.26458333)" />
    <path
       style="fill:#1f1d2e;fill-opacity:1;stroke-width:0.455649"
       d="m 202.76399,457.47201 v -16.6312 h 47.61536 47.61537 v 16.6312 16.63121 h -47.61537 -47.61536 z"
       id="path2112"
       transform="scale(0.26458333)" />
  </g>
</svg>
